<svg width="61" height="28" viewBox="0 0 61 28" fill="none" xmlns="http://www.w3.org/2000/svg">
    <path
        d="M7 3C7 1.5 8 0.0564331 10 0H27.4672C28.3716 0 29.1634 0.606825 29.3985 1.48005L31.6539 9.85751C31.9101 10.8088 33.2423 10.8556 33.5645 9.92465L36.5331 1.34894C36.8124 0.541889 37.5734 0.00127317 38.4275 0.00316936L42.5798 0.0123886C43.4303 0.0142769 44.1866 0.553851 44.4651 1.35746L47.4356 9.92871C47.7581 10.8592 49.0897 10.8124 49.346 9.86151L51.6012 1.49501C51.8365 0.622072 52.6282 0.0155417 53.5323 0.0155416L58.2559 0.0155409C59.6121 0.0155407 60.5751 1.33678 60.1599 2.62787L52.4463 26.6123C52.1803 27.4393 51.411 28 50.5423 28H45.5808C44.6542 28 43.8489 27.3635 43.6349 26.462L41.4777 17.3756C41.2344 16.3507 39.7762 16.3501 39.532 17.3748L37.3661 26.4636C37.1515 27.3644 36.3466 28 35.4206 28H21C19 28 18 26.5 18 25C18 23.5 19 22 21 22H24C26 22 27 21 27 19.5C27 18 26 17 24 17H3C1 17 0 15.5 0 14C0 12.5 1 11 3 11H22C24 11 25 10 25 8.5C25 7 23.9284 5.97397 22 6H10C8 6 7 4.5 7 3Z"
        fill="#2B6BF3" />
</svg>