<svg width="56" height="56" viewBox="0 0 56 56" fill="none" xmlns="http://www.w3.org/2000/svg">
<path d="M6 36V30.5616L8.09325 30.0382C8.61046 29.9089 9.0966 29.6775 9.52311 29.3577L16.6667 24L31.3591 24L37.5132 28.3958C37.9414 28.7017 38.4259 28.9201 38.9387 29.0384L50 31.591V36H47V38H50C51.1046 38 52 37.1046 52 36V31.591C52 30.6597 51.3572 29.8517 50.4497 29.6422L39.3884 27.0896C39.132 27.0305 38.8898 26.9213 38.6756 26.7683L32.5215 22.3725C32.1823 22.1302 31.7759 22 31.3591 22H16.6667C16.2339 22 15.8129 22.1404 15.4667 22.4L8.32311 27.7577C8.10985 27.9176 7.86678 28.0333 7.60818 28.098L5.51493 28.6213C4.62459 28.8439 4 29.6438 4 30.5616V36C4 37.1046 4.89543 38 6 38H10V36H6Z" fill="#2B6BF3"/>
<path d="M21 36V38H40V36H21Z" fill="#2B6BF3"/>
<path fill-rule="evenodd" clip-rule="evenodd" d="M13.5 39C14.8807 39 16 37.8807 16 36.5C16 35.1193 14.8807 34 13.5 34C12.1193 34 11 35.1193 11 36.5C11 37.8807 12.1193 39 13.5 39ZM13.5 41C15.9853 41 18 38.9853 18 36.5C18 34.0147 15.9853 32 13.5 32C11.0147 32 9 34.0147 9 36.5C9 38.9853 11.0147 41 13.5 41Z" fill="#2B6BF3"/>
<path fill-rule="evenodd" clip-rule="evenodd" d="M43.5 39C44.8807 39 46 37.8807 46 36.5C46 35.1193 44.8807 34 43.5 34C42.1193 34 41 35.1193 41 36.5C41 37.8807 42.1193 39 43.5 39ZM43.5 41C45.9853 41 48 38.9853 48 36.5C48 34.0147 45.9853 32 43.5 32C41.0147 32 39 34.0147 39 36.5C39 38.9853 41.0147 41 43.5 41Z" fill="#2B6BF3"/>
<path fill-rule="evenodd" clip-rule="evenodd" d="M20.823 13.0001C20.7753 13.0003 20.7276 13.0004 20.68 13.0006C20.4888 13.0012 20.2976 13.0018 20.1064 13.0017C20.0713 13.0017 20.0362 13.0017 20.001 13.0016C20.001 13.0114 20.001 13.0212 20.001 13.031C20.0007 13.2967 20.0005 13.5624 20.0003 13.8282C20.0002 13.9376 20.0002 14.047 20.0001 14.1565C20.0001 14.2365 20 14.3165 20 14.3965C19.9999 14.5982 19.9999 14.7999 19.9999 15.0016C19.9998 15.2567 19.9998 15.5118 19.9999 15.7668C19.9999 15.9035 20 16.0402 20 16.1769C20.0002 16.7837 20.0006 17.3905 20.001 17.9974C20.6289 17.9972 21.2568 17.9977 21.8847 17.9982C21.9692 17.9983 22.0537 17.9983 22.1382 17.9984C22.1758 17.9984 22.2135 17.9984 22.2511 17.9985C22.7176 17.9988 23.1842 17.9991 23.6507 17.999C23.7944 17.999 23.9381 17.9989 24.0818 17.9988C24.4586 17.9985 24.8355 17.998 25.2124 17.997C25.472 17.9963 25.7316 17.9954 25.9912 17.9943C25.9924 17.9943 25.9936 17.9943 25.9947 17.9943C25.9964 17.6478 25.9976 17.3013 25.9983 16.9548C25.9991 16.5709 25.9993 16.187 25.9993 15.8031C25.9993 15.2889 25.9988 14.7748 25.9983 14.2607C25.9983 14.2573 25.9983 14.2539 25.9983 14.2505C25.9978 13.8363 25.9974 13.4221 25.9972 13.0079C25.9972 13.0062 25.9972 13.0045 25.9972 13.0029C25.8847 13.0021 25.7722 13.0016 25.6597 13.0012C25.3095 13 24.9594 13.0003 24.6092 13.0008C24.5489 13.0008 24.4886 13.0009 24.4283 13.001C24.2858 13.0013 24.1432 13.0015 24.0006 13.0016C24.0006 13.0023 24.0006 13.0029 24.0006 13.0036C24 13.1788 23.9997 13.3539 23.9996 13.5291C23.9995 13.6857 23.9995 13.8422 23.9995 13.9987C23.9996 14.1109 23.9997 14.2231 23.9998 14.3354C23.9998 14.3718 23.9998 14.4082 23.9998 14.4447C23.9999 14.5095 23.9999 14.5743 24 14.639C24.0002 14.9946 24.0004 15.3502 23.9996 15.7057C23.9995 15.739 23.9994 15.7723 23.9993 15.8056C23.9992 15.8618 23.999 15.9181 23.9988 15.9743C23.9988 15.9825 23.9987 15.9906 23.9987 15.9987C23.8773 15.9986 23.7559 15.9987 23.6345 15.999C23.534 15.9992 23.4336 15.9995 23.3332 15.9998C22.9377 16.0009 22.5422 16.002 22.1468 15.9984C22.0985 15.9979 22.0503 15.9974 22.0021 15.9968C22.002 15.995 22.002 15.9931 22.002 15.9912C22.0011 15.9141 22.0004 15.837 21.9999 15.7599C21.9998 15.7439 21.9997 15.728 21.9996 15.7121C21.9971 15.3241 21.9982 14.9361 21.9992 14.548C21.9994 14.4793 21.9996 14.4105 21.9997 14.3417C21.9999 14.2812 22 14.2206 22.0001 14.1601C22.0003 14.0493 22.0004 13.9385 22.0003 13.8277C22.0002 13.7258 22 13.624 21.9996 13.5222C21.9988 13.3497 21.9975 13.1772 21.9952 13.0047C21.9742 13.0044 21.9532 13.0041 21.9321 13.0038C21.8055 13.002 21.6789 13.0009 21.5523 13.0002C21.3092 12.9989 21.0661 12.9994 20.823 13.0001ZM21.5385 11.0002C22.5205 11.0003 23.6387 11.0005 24.6066 11.0008C24.9879 11.0009 25.3458 11.001 25.663 11.0012C26.462 11.0016 27.002 11.0022 27.0034 11.0029C27.0396 11.0027 27.0758 11.0052 27.1118 11.0101C27.5534 11.071 27.9696 11.5058 27.9968 11.9497C27.9978 11.965 27.9983 11.9804 27.9983 11.9957V19.0001C27.9984 19.0397 27.9953 19.0794 27.9893 19.1189C27.9253 19.5391 27.5292 19.9337 27.1094 19.9894C27.0742 19.9941 27.0388 19.9964 27.0034 19.9961L18.9983 20.0001C18.9785 20.0001 18.9587 19.9993 18.9389 19.9978C18.4778 19.9619 18.0337 19.5164 18.0018 19.0552C18.0006 19.0369 17.9999 19.0185 18 19.0001V12C17.9999 11.9798 18.0007 11.9595 18.0022 11.9393C18.0387 11.4603 18.5185 11 18.9983 11C18.9983 11 19.0509 11 19.1477 11C19.4196 11 20.0396 11 20.8183 11.0001C21.0464 11.0001 21.288 11.0001 21.5385 11.0002Z" fill="#FFDD2D"/>
</svg>
