<svg width="40" height="40" viewBox="0 0 40 40" fill="none" xmlns="http://www.w3.org/2000/svg">
<circle cx="20" cy="20" r="20" fill="#2B6BF3"/>
<path fill-rule="evenodd" clip-rule="evenodd" d="M15.4657 9.06646C16.6391 9.01306 17.014 9 20.0015 9H19.998C22.9864 9 23.3599 9.01306 24.5333 9.06646C25.7043 9.12008 26.5041 9.30548 27.2054 9.5775C27.9296 9.85823 28.5414 10.2341 29.1533 10.8459C29.7652 11.4574 30.141 12.0711 30.4229 12.7945C30.6933 13.494 30.879 14.2933 30.934 15.4643C30.9867 16.6377 31.0004 17.0126 31.0004 20C31.0004 22.9874 30.9867 23.3614 30.934 24.5348C30.879 25.7053 30.6933 26.5049 30.4229 27.2045C30.141 27.9278 29.7652 28.5415 29.1533 29.1529C28.5421 29.7648 27.9293 30.1415 27.2061 30.4225C26.5062 30.6945 25.7059 30.8799 24.5349 30.9335C23.3615 30.9869 20.0001 31 20.0001 31C20.0001 31 16.6382 30.9869 15.4648 30.9335C14.294 30.8799 13.4944 30.6945 12.7945 30.4225C12.0715 30.1415 11.4578 29.7648 10.8466 29.1529C10.235 28.5415 9.85912 27.9278 9.57793 27.2043C9.30614 26.5049 9.12074 25.7056 9.06689 24.5345C9.01372 23.3612 9.00043 22.9874 9.00043 20C9.00043 17.0126 9.01418 16.6374 9.06666 15.4641C9.11937 14.2935 9.30499 13.494 9.5777 12.7943C9.85958 12.0711 10.2354 11.4574 10.8473 10.8459C11.4587 10.2343 12.0724 9.85846 12.7959 9.5775C13.4953 9.30548 14.2947 9.12008 15.4657 9.06646ZM20.0004 11C20.0004 11 16.5711 10.9956 15.5564 11.0414C14.4839 11.0907 13.9015 11.2694 13.5138 11.4207C13.0005 11.6205 12.6338 11.8588 12.2488 12.2438C11.8638 12.6288 11.625 12.9955 11.4256 13.5088C11.275 13.8966 11.0958 14.4787 11.0468 15.5512C10.9941 16.7108 11.0004 20 11.0004 20C11.0004 20 10.9941 23.2805 11.0468 24.4401C11.0956 25.5126 11.275 26.0947 11.4256 26.482C11.6254 26.9955 11.8638 27.3613 12.2488 27.7463C12.6338 28.1313 13.0005 28.3696 13.5138 28.569C13.9018 28.7196 14.4839 28.8988 15.5564 28.9483C16.716 29.001 20.0004 29 20.0004 29C20.0004 29 23.2867 29.001 24.4463 28.9483C25.5188 28.8992 26.1014 28.7205 26.4887 28.5692C27.0022 28.3698 27.3678 28.1315 27.7528 27.7465C28.1378 27.3617 28.3766 26.9962 28.5759 26.4829C28.7265 26.0956 28.9057 25.5135 28.9547 24.441C29.0075 23.2814 29.0004 20 29.0004 20C29.0004 20 29.0075 16.7135 28.9547 15.5539C28.9059 14.4814 28.7265 13.8993 28.5759 13.5121C28.3761 12.9987 28.1378 12.6321 27.7528 12.2471C27.368 11.8621 27.002 11.6237 26.4887 11.4243C26.1009 11.2738 25.5188 11.0946 24.4463 11.0455C23.2865 10.9928 20.0004 11 20.0004 11Z" fill="white"/>
<path fill-rule="evenodd" clip-rule="evenodd" d="M20 24C22.2092 24 24 22.2091 24 20C24 17.7909 22.2092 16 20 16C17.7909 16 16 17.7909 16 20C16 22.2091 17.7909 24 20 24ZM20 26C23.3137 26 26 23.3137 26 20C26 16.6863 23.3137 14 20 14C16.6863 14 14 16.6863 14 20C14 23.3137 16.6863 26 20 26Z" fill="white"/>
<path fill-rule="evenodd" clip-rule="evenodd" d="M26 13C25.4479 13 25 13.4475 25 13.9998C25 14.552 25.4479 15 26 15C26.5521 15 27 14.552 27 13.9998C27 13.4476 26.5521 13 26 13Z" fill="white"/>
</svg>
